<svg width="850" height="500" xmlns="http://www.w3.org/2000/svg" xmlns:xlink="http://www.w3.org/1999/xlink" version="1.1" baseProfile="full" viewBox="0 0 850 500">
<rect width="850" height="500" x="0" y="0" fill="none"></rect>
<path d="M250 50Q255.5 77.3 255 104.6" transform="matrix(0.93,0,0,0.93,192.4419,3.4884)" fill="transparent" stroke="#3b82f6" stroke-width="2.6875" stroke-opacity="0.85" ecmeta_series_index="0" ecmeta_data_index="0" ecmeta_ssr_type="chart" class="zr5-cls-94"></path>
<path d="M0 0L6.6667 10L0 7.5L-6.6667 10L0 0Z" transform="matrix(-1,-0.018,0.018,-1,429.6121,100.7742)" fill="#3b82f6" fill-opacity="0.85" ecmeta_series_index="0" ecmeta_data_index="0" ecmeta_ssr_type="chart" class="zr5-cls-95"></path>
<path d="M250 150Q222.8 190.8 186.4 222.3" transform="matrix(0.93,0,0,0.93,192.4419,3.4884)" fill="transparent" stroke="#3b82f6" stroke-width="2.6875" stroke-opacity="0.85" ecmeta_series_index="0" ecmeta_data_index="1" ecmeta_ssr_type="chart" class="zr5-cls-94"></path>
<path d="M0 0L6.6667 10L0 7.5L-6.6667 10L0 0Z" transform="matrix(-0.655,-0.756,0.756,-0.655,365.8039,210.3176)" fill="#3b82f6" fill-opacity="0.85" ecmeta_series_index="0" ecmeta_data_index="1" ecmeta_ssr_type="chart" class="zr5-cls-95"></path>
<path d="M250 150Q277.3 144.5 304.6 145" transform="matrix(0.93,0,0,0.93,192.4419,3.4884)" fill="transparent" stroke="#3b82f6" stroke-width="2.6875" stroke-opacity="0.85" ecmeta_series_index="0" ecmeta_data_index="2" ecmeta_ssr_type="chart" class="zr5-cls-94"></path>
<path d="M0 0L6.6667 10L0 7.5L-6.6667 10L0 0Z" transform="matrix(-0.018,1,-1,-0.018,475.7742,138.4112)" fill="#3b82f6" fill-opacity="0.85" ecmeta_series_index="0" ecmeta_data_index="2" ecmeta_ssr_type="chart" class="zr5-cls-95"></path>
<path d="M350 150Q355.5 177.3 355 204.6" transform="matrix(0.93,0,0,0.93,192.4419,3.4884)" fill="transparent" stroke="#3b82f6" stroke-width="2.6875" stroke-opacity="0.85" ecmeta_series_index="0" ecmeta_data_index="3" ecmeta_ssr_type="chart" class="zr5-cls-94"></path>
<path d="M0 0L6.6667 10L0 7.5L-6.6667 10L0 0Z" transform="matrix(-1,-0.018,0.018,-1,522.6354,193.7974)" fill="#3b82f6" fill-opacity="0.85" ecmeta_series_index="0" ecmeta_data_index="3" ecmeta_ssr_type="chart" class="zr5-cls-95"></path>
<path d="M350 250Q255.9 325.6 143.5 365.9" transform="matrix(0.93,0,0,0.93,192.4419,3.4884)" fill="transparent" stroke="#3b82f6" stroke-width="2.6875" stroke-opacity="0.85" ecmeta_series_index="0" ecmeta_data_index="4" ecmeta_ssr_type="chart" class="zr5-cls-94"></path>
<path d="M0 0L6.6667 10L0 7.5L-6.6667 10L0 0Z" transform="matrix(-0.338,-0.941,0.941,-0.338,325.8995,343.8882)" fill="#3b82f6" fill-opacity="0.85" ecmeta_series_index="0" ecmeta_data_index="4" ecmeta_ssr_type="chart" class="zr5-cls-95"></path>
<path d="M350 250Q302.1 311.8 238.7 355.7" transform="matrix(0.93,0,0,0.93,192.4419,3.4884)" fill="transparent" stroke="#3b82f6" stroke-width="2.6875" stroke-opacity="0.85" ecmeta_series_index="0" ecmeta_data_index="5" ecmeta_ssr_type="chart" class="zr5-cls-94"></path>
<path d="M0 0L6.6667 10L0 7.5L-6.6667 10L0 0Z" transform="matrix(-0.569,-0.822,0.822,-0.569,414.4787,334.3726)" fill="#3b82f6" fill-opacity="0.85" ecmeta_series_index="0" ecmeta_data_index="5" ecmeta_ssr_type="chart" class="zr5-cls-95"></path>
<path d="M350 250Q341.9 297.2 322 339.9" transform="matrix(0.93,0,0,0.93,192.4419,3.4884)" fill="transparent" stroke="#3b82f6" stroke-width="2.6875" stroke-opacity="0.85" ecmeta_series_index="0" ecmeta_data_index="6" ecmeta_ssr_type="chart" class="zr5-cls-94"></path>
<path d="M0 0L6.6667 10L0 7.5L-6.6667 10L0 0Z" transform="matrix(-0.906,-0.423,0.423,-0.906,491.9375,319.707)" fill="#3b82f6" fill-opacity="0.85" ecmeta_series_index="0" ecmeta_data_index="6" ecmeta_ssr_type="chart" class="zr5-cls-95"></path>
<path d="M350 250Q375.6 290.5 389.5 335.5" transform="matrix(0.93,0,0,0.93,192.4419,3.4884)" fill="transparent" stroke="#3b82f6" stroke-width="2.6875" stroke-opacity="0.85" ecmeta_series_index="0" ecmeta_data_index="7" ecmeta_ssr_type="chart" class="zr5-cls-94"></path>
<path d="M0 0L6.6667 10L0 7.5L-6.6667 10L0 0Z" transform="matrix(-0.956,0.293,-0.293,-0.956,554.7218,315.6252)" fill="#3b82f6" fill-opacity="0.85" ecmeta_series_index="0" ecmeta_data_index="7" ecmeta_ssr_type="chart" class="zr5-cls-95"></path>
<path d="M200 380Q205.5 407.3 205 434.6" transform="matrix(0.93,0,0,0.93,192.4419,3.4884)" fill="transparent" stroke="#3b82f6" stroke-width="2.6875" stroke-opacity="0.85" ecmeta_series_index="0" ecmeta_data_index="8" ecmeta_ssr_type="chart" class="zr5-cls-94"></path>
<path d="M0 0L6.6667 10L0 7.5L-6.6667 10L0 0Z" transform="matrix(-1,-0.018,0.018,-1,383.1005,407.7509)" fill="#3b82f6" fill-opacity="0.85" ecmeta_series_index="0" ecmeta_data_index="8" ecmeta_ssr_type="chart" class="zr5-cls-95"></path>
<path d="M300 380Q305.5 407.3 305 434.6" transform="matrix(0.93,0,0,0.93,192.4419,3.4884)" fill="transparent" stroke="#3b82f6" stroke-width="2.6875" stroke-opacity="0.85" ecmeta_series_index="0" ecmeta_data_index="9" ecmeta_ssr_type="chart" class="zr5-cls-94"></path>
<path d="M0 0L6.6667 10L0 7.5L-6.6667 10L0 0Z" transform="matrix(-1,-0.018,0.018,-1,476.1237,407.7509)" fill="#3b82f6" fill-opacity="0.85" ecmeta_series_index="0" ecmeta_data_index="9" ecmeta_ssr_type="chart" class="zr5-cls-95"></path>
<path d="M1 0A1 1 0 1 1 1 -0.01" transform="matrix(42.5,0,0,42.5,425,50)" fill="#5470c6" stroke="#1f2937" stroke-width="0.03529411764705882" ecmeta_series_index="0" ecmeta_data_index="0" ecmeta_ssr_type="chart" class="zr5-cls-96 zr5-cls-97"></path>
<path d="M1 0A1 1 0 1 1 1 -0.01" transform="matrix(42.5,0,0,42.5,425,143.0233)" fill="#5470c6" stroke="#1f2937" stroke-width="0.03529411764705882" ecmeta_series_index="0" ecmeta_data_index="1" ecmeta_ssr_type="chart" class="zr5-cls-98 zr5-cls-97"></path>
<path d="M1 0A1 1 0 1 1 1 -0.01" transform="matrix(42.5,0,0,42.5,331.9767,236.0465)" fill="#91cc75" stroke="#1f2937" stroke-width="0.03529411764705882" ecmeta_series_index="0" ecmeta_data_index="2" ecmeta_ssr_type="chart" class="zr5-cls-99 zr5-cls-100"></path>
<path d="M1 0A1 1 0 1 1 1 -0.01" transform="matrix(42.5,0,0,42.5,518.0233,143.0233)" fill="#5470c6" stroke="#1f2937" stroke-width="0.03529411764705882" ecmeta_series_index="0" ecmeta_data_index="3" ecmeta_ssr_type="chart" class="zr5-cls-101 zr5-cls-97"></path>
<path d="M1 0A1 1 0 1 1 1 -0.01" transform="matrix(42.5,0,0,42.5,518.0233,236.0465)" fill="#91cc75" stroke="#1f2937" stroke-width="0.03529411764705882" ecmeta_series_index="0" ecmeta_data_index="4" ecmeta_ssr_type="chart" class="zr5-cls-102 zr5-cls-100"></path>
<path d="M1 0A1 1 0 1 1 1 -0.01" transform="matrix(42.5,0,0,42.5,285.4651,356.9767)" fill="#fac858" stroke="#1f2937" stroke-width="0.03529411764705882" ecmeta_series_index="0" ecmeta_data_index="5" ecmeta_ssr_type="chart" class="zr5-cls-103 zr5-cls-104"></path>
<path d="M1 0A1 1 0 1 1 1 -0.01" transform="matrix(42.5,0,0,42.5,378.4884,356.9767)" fill="#fac858" stroke="#1f2937" stroke-width="0.03529411764705882" ecmeta_series_index="0" ecmeta_data_index="6" ecmeta_ssr_type="chart" class="zr5-cls-105 zr5-cls-104"></path>
<path d="M1 0A1 1 0 1 1 1 -0.01" transform="matrix(42.5,0,0,42.5,471.5116,356.9767)" fill="#fac858" stroke="#1f2937" stroke-width="0.03529411764705882" ecmeta_series_index="0" ecmeta_data_index="7" ecmeta_ssr_type="chart" class="zr5-cls-106 zr5-cls-104"></path>
<path d="M1 0A1 1 0 1 1 1 -0.01" transform="matrix(42.5,0,0,42.5,564.5349,356.9767)" fill="#fac858" stroke="#1f2937" stroke-width="0.03529411764705882" ecmeta_series_index="0" ecmeta_data_index="8" ecmeta_ssr_type="chart" class="zr5-cls-107 zr5-cls-104"></path>
<path d="M1 0A1 1 0 1 1 1 -0.01" transform="matrix(42.5,0,0,42.5,378.4884,450)" fill="#ee6666" stroke="#1f2937" stroke-width="0.03529411764705882" ecmeta_series_index="0" ecmeta_data_index="9" ecmeta_ssr_type="chart" class="zr5-cls-108 zr5-cls-109"></path>
<path d="M1 0A1 1 0 1 1 1 -0.01" transform="matrix(42.5,0,0,42.5,471.5116,450)" fill="#ee6666" stroke="#1f2937" stroke-width="0.03529411764705882" ecmeta_series_index="0" ecmeta_data_index="10" ecmeta_ssr_type="chart" class="zr5-cls-110 zr5-cls-109"></path>
<text dominant-baseline="central" text-anchor="middle" style="font-size:12px;font-family:sans-serif;font-weight:bold;" xml:space="preserve" transform="translate(425 50)" fill="#eee" stroke="#5470c6" stroke-width="2" paint-order="stroke" stroke-miterlimit="2">Catalog Anomaly</text>
<text dominant-baseline="central" text-anchor="middle" style="font-size:12px;font-family:sans-serif;font-weight:bold;" xml:space="preserve" transform="translate(425 143.0233)" fill="#eee" stroke="#5470c6" stroke-width="2" paint-order="stroke" stroke-miterlimit="2">RCA Activity</text>
<text dominant-baseline="central" text-anchor="middle" style="font-size:12px;font-family:sans-serif;font-weight:bold;" transform="translate(331.9767 236.0465)" fill="#333">GoogleRootCauseAgent</text>
<text dominant-baseline="central" text-anchor="middle" style="font-size:12px;font-family:sans-serif;font-weight:bold;" xml:space="preserve" transform="translate(518.0233 143.0233)" fill="#eee" stroke="#5470c6" stroke-width="2" paint-order="stroke" stroke-miterlimit="2">Fix Activity</text>
<text dominant-baseline="central" text-anchor="middle" style="font-size:12px;font-family:sans-serif;font-weight:bold;" transform="translate(518.0233 236.0465)" fill="#333">GoogleFixProposalAgent</text>
<text dominant-baseline="central" text-anchor="middle" style="font-size:12px;font-family:sans-serif;font-weight:bold;" transform="translate(285.4651 356.9767)" fill="#333">llm_inference</text>
<text dominant-baseline="central" text-anchor="middle" style="font-size:12px;font-family:sans-serif;font-weight:bold;" transform="translate(378.4884 356.9767)" fill="#333">apply_patch</text>
<text dominant-baseline="central" text-anchor="middle" style="font-size:12px;font-family:sans-serif;font-weight:bold;" transform="translate(471.5116 356.9767)" fill="#333">vector_refresh</text>
<text dominant-baseline="central" text-anchor="middle" style="font-size:12px;font-family:sans-serif;font-weight:bold;" transform="translate(564.5349 356.9767)" fill="#333">trigger_reindex</text>
<text dominant-baseline="central" text-anchor="middle" style="font-size:12px;font-family:sans-serif;font-weight:bold;" xml:space="preserve" transform="translate(378.4884 450)" fill="#333">sqlite (Catalog DB)</text>
<text dominant-baseline="central" text-anchor="middle" style="font-size:12px;font-family:sans-serif;font-weight:bold;" xml:space="preserve" transform="translate(471.5116 450)" fill="#333">LanceDB (Vector Store)</text>
<path d="M-5 -5l523.3 0l0 26l-523.3 0Z" transform="translate(168.36 469)" fill="rgb(0,0,0)" fill-opacity="0" stroke="#ccc" stroke-width="0" class="zr5-cls-111"></path>
<path d="M3.5 0L21.5 0A3.5 3.5 0 0 1 25 3.5L25 10.5A3.5 3.5 0 0 1 21.5 14L3.5 14A3.5 3.5 0 0 1 0 10.5L0 3.5A3.5 3.5 0 0 1 3.5 0" transform="translate(169.36 470)" fill="#5470c6" stroke="#1f2937" stroke-width="2" stroke-linecap="butt" stroke-miterlimit="10" ecmeta_series_index="0" ecmeta_data_index="0" ecmeta_ssr_type="legend" ecmeta_silent="true" class="zr5-cls-111"></path>
<text dominant-baseline="central" text-anchor="start" style="font-size:12px;font-family:sans-serif;" x="30" y="7" transform="translate(169.36 470)" fill="#333">Orchestration</text>
<path d="M-1 -1l103.2 0l0 16l-103.2 0Z" transform="translate(169.36 470)" fill="transparent" ecmeta_series_index="0" ecmeta_data_index="0" ecmeta_ssr_type="legend" class="zr5-cls-112"></path>
<path d="M3.5 0L21.5 0A3.5 3.5 0 0 1 25 3.5L25 10.5A3.5 3.5 0 0 1 21.5 14L3.5 14A3.5 3.5 0 0 1 0 10.5L0 3.5A3.5 3.5 0 0 1 3.5 0" transform="translate(282.6 470)" fill="#91cc75" stroke="#1f2937" stroke-width="2" stroke-linecap="butt" stroke-miterlimit="10" ecmeta_series_index="0" ecmeta_data_index="1" ecmeta_ssr_type="legend" ecmeta_silent="true" class="zr5-cls-111"></path>
<text dominant-baseline="central" text-anchor="start" style="font-size:12px;font-family:sans-serif;" xml:space="preserve" x="30" y="7" transform="translate(282.6 470)" fill="#333">WASM Sandbox REPL</text>
<path d="M-1 -1l154.1 0l0 16l-154.1 0Z" transform="translate(282.6 470)" fill="transparent" ecmeta_series_index="0" ecmeta_data_index="1" ecmeta_ssr_type="legend" class="zr5-cls-112"></path>
<path d="M3.5 0L21.5 0A3.5 3.5 0 0 1 25 3.5L25 10.5A3.5 3.5 0 0 1 21.5 14L3.5 14A3.5 3.5 0 0 1 0 10.5L0 3.5A3.5 3.5 0 0 1 3.5 0" transform="translate(446.72 470)" fill="#fac858" stroke="#1f2937" stroke-width="2" stroke-linecap="butt" stroke-miterlimit="10" ecmeta_series_index="0" ecmeta_data_index="2" ecmeta_ssr_type="legend" ecmeta_silent="true" class="zr5-cls-111"></path>
<text dominant-baseline="central" text-anchor="start" style="font-size:12px;font-family:sans-serif;" xml:space="preserve" x="30" y="7" transform="translate(446.72 470)" fill="#333">Remediation Tools</text>
<path d="M-1 -1l131.3 0l0 16l-131.3 0Z" transform="translate(446.72 470)" fill="transparent" ecmeta_series_index="0" ecmeta_data_index="2" ecmeta_ssr_type="legend" class="zr5-cls-112"></path>
<path d="M3.5 0L21.5 0A3.5 3.5 0 0 1 25 3.5L25 10.5A3.5 3.5 0 0 1 21.5 14L3.5 14A3.5 3.5 0 0 1 0 10.5L0 3.5A3.5 3.5 0 0 1 3.5 0" transform="translate(588.04 470)" fill="#ee6666" stroke="#1f2937" stroke-width="2" stroke-linecap="butt" stroke-miterlimit="10" ecmeta_series_index="0" ecmeta_data_index="3" ecmeta_ssr_type="legend" ecmeta_silent="true" class="zr5-cls-111"></path>
<text dominant-baseline="central" text-anchor="start" style="font-size:12px;font-family:sans-serif;" xml:space="preserve" x="30" y="7" transform="translate(588.04 470)" fill="#333">Data Stores</text>
<path d="M-1 -1l94.6 0l0 16l-94.6 0Z" transform="translate(588.04 470)" fill="transparent" ecmeta_series_index="0" ecmeta_data_index="3" ecmeta_ssr_type="legend" class="zr5-cls-112"></path>
<path d="M-228.7 -5l457.4 0l0 50l-457.4 0Z" transform="translate(425 5)" fill="rgb(0,0,0)" fill-opacity="0" stroke="#ccc" stroke-width="0" class="zr5-cls-111"></path>
<text dominant-baseline="central" text-anchor="middle" style="font-size:18px;font-family:sans-serif;font-weight:bold;" xml:space="preserve" y="9" transform="translate(425 5)" fill="#1e3a8a">1. Catalog Agent Pipeline Architecture</text>
<text dominant-baseline="central" text-anchor="middle" style="font-size:12px;font-family:sans-serif;" xml:space="preserve" y="34" transform="translate(425 5)" fill="#6E7079">From Schema Gaps &amp; Staleness Detection to LLM Inference and Index Re-indexing</text>
<style ><![CDATA[
.zr5-cls-94:hover {
cursor:pointer;
}
.zr5-cls-95:hover {
cursor:pointer;
fill:rgba(64,143,255,1);
}
.zr5-cls-96 {
animation:zr5-ani-0 1s cubic-bezier(0.65,0,0.35,1) both;
}
.zr5-cls-97:hover {
cursor:pointer;
fill:rgba(92,123,217,1);
}
.zr5-cls-98 {
animation:zr5-ani-1 1s cubic-bezier(0.65,0,0.35,1) both;
}
.zr5-cls-99 {
animation:zr5-ani-2 1s cubic-bezier(0.65,0,0.35,1) both;
}
.zr5-cls-100:hover {
cursor:pointer;
fill:rgba(159,224,128,1);
}
.zr5-cls-101 {
animation:zr5-ani-3 1s cubic-bezier(0.65,0,0.35,1) both;
}
.zr5-cls-102 {
animation:zr5-ani-4 1s cubic-bezier(0.65,0,0.35,1) both;
}
.zr5-cls-103 {
animation:zr5-ani-5 1s cubic-bezier(0.65,0,0.35,1) both;
}
.zr5-cls-104:hover {
cursor:pointer;
fill:rgba(255,220,96,1);
}
.zr5-cls-105 {
animation:zr5-ani-6 1s cubic-bezier(0.65,0,0.35,1) both;
}
.zr5-cls-106 {
animation:zr5-ani-7 1s cubic-bezier(0.65,0,0.35,1) both;
}
.zr5-cls-107 {
animation:zr5-ani-8 1s cubic-bezier(0.65,0,0.35,1) both;
}
.zr5-cls-108 {
animation:zr5-ani-9 1s cubic-bezier(0.65,0,0.35,1) both;
}
.zr5-cls-109:hover {
cursor:pointer;
fill:rgba(255,112,112,1);
}
.zr5-cls-110 {
animation:zr5-ani-10 1s cubic-bezier(0.65,0,0.35,1) both;
}
.zr5-cls-111:hover {
pointer-events:none;
}
.zr5-cls-112:hover {
cursor:pointer;
fill:rgba(0,0,0,0);
}
@keyframes zr5-ani-0 {
0% {
transform:scale(0,0);
opacity:0;
}
100% {
transform:scale(42.5,42.5);
opacity:1;
}
}
@keyframes zr5-ani-1 {
0% {
transform:scale(0,0);
opacity:0;
}
100% {
transform:scale(42.5,42.5);
opacity:1;
}
}
@keyframes zr5-ani-2 {
0% {
transform:scale(0,0);
opacity:0;
}
100% {
transform:scale(42.5,42.5);
opacity:1;
}
}
@keyframes zr5-ani-3 {
0% {
transform:scale(0,0);
opacity:0;
}
100% {
transform:scale(42.5,42.5);
opacity:1;
}
}
@keyframes zr5-ani-4 {
0% {
transform:scale(0,0);
opacity:0;
}
100% {
transform:scale(42.5,42.5);
opacity:1;
}
}
@keyframes zr5-ani-5 {
0% {
transform:scale(0,0);
opacity:0;
}
100% {
transform:scale(42.5,42.5);
opacity:1;
}
}
@keyframes zr5-ani-6 {
0% {
transform:scale(0,0);
opacity:0;
}
100% {
transform:scale(42.5,42.5);
opacity:1;
}
}
@keyframes zr5-ani-7 {
0% {
transform:scale(0,0);
opacity:0;
}
100% {
transform:scale(42.5,42.5);
opacity:1;
}
}
@keyframes zr5-ani-8 {
0% {
transform:scale(0,0);
opacity:0;
}
100% {
transform:scale(42.5,42.5);
opacity:1;
}
}
@keyframes zr5-ani-9 {
0% {
transform:scale(0,0);
opacity:0;
}
100% {
transform:scale(42.5,42.5);
opacity:1;
}
}
@keyframes zr5-ani-10 {
0% {
transform:scale(0,0);
opacity:0;
}
100% {
transform:scale(42.5,42.5);
opacity:1;
}
}
]]>

</style>
</svg>