<svg width="850" height="500" xmlns="http://www.w3.org/2000/svg" xmlns:xlink="http://www.w3.org/1999/xlink" version="1.1" baseProfile="full" viewBox="0 0 850 500">
<rect width="850" height="500" x="0" y="0" fill="none"></rect>
<path d="M150 80Q155.4 106.8 155 133.5" transform="matrix(0.909,0,0,0.909,220.4545,-22.7273)" fill="transparent" stroke="#ef4444" stroke-width="2.75" stroke-opacity="0.85" ecmeta_series_index="0" ecmeta_data_index="0" ecmeta_ssr_type="chart" class="zr10-cls-179"></path>
<path d="M0 0L6.6667 10L0 7.5L-6.6667 10L0 0Z" transform="matrix(-1,-0.014,0.014,-1,361.3412,98.6504)" fill="#ef4444" fill-opacity="0.85" ecmeta_series_index="0" ecmeta_data_index="0" ecmeta_ssr_type="chart" class="zr10-cls-180"></path>
<path d="M150 180Q209.1 194.4 260.9 224.4" transform="matrix(0.909,0,0,0.909,220.4545,-22.7273)" fill="transparent" stroke="#ef4444" stroke-width="2.75" stroke-opacity="0.85" ecmeta_series_index="0" ecmeta_data_index="1" ecmeta_ssr_type="chart" class="zr10-cls-179"></path>
<path d="M0 0L6.6667 10L0 7.5L-6.6667 10L0 0Z" transform="matrix(-0.501,0.866,-0.866,-0.501,457.626,181.2639)" fill="#ef4444" fill-opacity="0.85" ecmeta_series_index="0" ecmeta_data_index="1" ecmeta_ssr_type="chart" class="zr10-cls-180"></path>
<path d="M150 180Q159.4 226.8 156.2 273.7" transform="matrix(0.909,0,0,0.909,220.4545,-22.7273)" fill="transparent" stroke="#ef4444" stroke-width="2.75" stroke-opacity="0.85" ecmeta_series_index="0" ecmeta_data_index="2" ecmeta_ssr_type="chart" class="zr10-cls-179"></path>
<path d="M0 0L6.6667 10L0 7.5L-6.6667 10L0 0Z" transform="matrix(-0.998,-0.067,0.067,-0.998,362.4546,226.0573)" fill="#ef4444" fill-opacity="0.85" ecmeta_series_index="0" ecmeta_data_index="2" ecmeta_ssr_type="chart" class="zr10-cls-180"></path>
<path d="M300 250Q251 286 194.8 306.5" transform="matrix(0.909,0,0,0.909,220.4545,-22.7273)" fill="transparent" stroke="#ef4444" stroke-width="2.75" stroke-opacity="0.85" ecmeta_series_index="0" ecmeta_data_index="3" ecmeta_ssr_type="chart" class="zr10-cls-179"></path>
<path d="M0 0L6.6667 10L0 7.5L-6.6667 10L0 0Z" transform="matrix(-0.342,-0.94,0.94,-0.342,397.5004,255.8856)" fill="#ef4444" fill-opacity="0.85" ecmeta_series_index="0" ecmeta_data_index="3" ecmeta_ssr_type="chart" class="zr10-cls-180"></path>
<path d="M150 320Q157.4 356.8 155.7 393.6" transform="matrix(0.909,0,0,0.909,220.4545,-22.7273)" fill="transparent" stroke="#ef4444" stroke-width="2.75" stroke-opacity="0.85" ecmeta_series_index="0" ecmeta_data_index="4" ecmeta_ssr_type="chart" class="zr10-cls-179"></path>
<path d="M0 0L6.6667 10L0 7.5L-6.6667 10L0 0Z" transform="matrix(-0.999,-0.045,0.045,-0.999,361.9926,335.0889)" fill="#ef4444" fill-opacity="0.85" ecmeta_series_index="0" ecmeta_data_index="4" ecmeta_ssr_type="chart" class="zr10-cls-180"></path>
<path d="M150 440Q123.2 471.9 89.9 495.7" transform="matrix(0.909,0,0,0.909,220.4545,-22.7273)" fill="transparent" stroke="#ef4444" stroke-width="2.75" stroke-opacity="0.85" ecmeta_series_index="0" ecmeta_data_index="5" ecmeta_ssr_type="chart" class="zr10-cls-179"></path>
<path d="M0 0L6.6667 10L0 7.5L-6.6667 10L0 0Z" transform="matrix(-0.581,-0.814,0.814,-0.581,302.1891,427.8637)" fill="#ef4444" fill-opacity="0.85" ecmeta_series_index="0" ecmeta_data_index="5" ecmeta_ssr_type="chart" class="zr10-cls-180"></path>
<path d="M150 440Q153.3 456.7 153.9 473.4" transform="matrix(0.909,0,0,0.909,220.4545,-22.7273)" fill="transparent" stroke="#ef4444" stroke-width="2.75" stroke-opacity="0.85" ecmeta_series_index="0" ecmeta_data_index="6" ecmeta_ssr_type="chart" class="zr10-cls-179"></path>
<path d="M0 0L6.6667 10L0 7.5L-6.6667 10L0 0Z" transform="matrix(-0.999,0.033,-0.033,-0.999,360.3559,407.6476)" fill="#ef4444" fill-opacity="0.85" ecmeta_series_index="0" ecmeta_data_index="6" ecmeta_ssr_type="chart" class="zr10-cls-180"></path>
<path d="M150 440Q187 459.1 217.5 486.4" transform="matrix(0.909,0,0,0.909,220.4545,-22.7273)" fill="transparent" stroke="#ef4444" stroke-width="2.75" stroke-opacity="0.85" ecmeta_series_index="0" ecmeta_data_index="7" ecmeta_ssr_type="chart" class="zr10-cls-179"></path>
<path d="M0 0L6.6667 10L0 7.5L-6.6667 10L0 0Z" transform="matrix(-0.667,0.745,-0.745,-0.667,418.167,419.4641)" fill="#ef4444" fill-opacity="0.85" ecmeta_series_index="0" ecmeta_data_index="7" ecmeta_ssr_type="chart" class="zr10-cls-180"></path>
<path d="M150 440Q142.6 403.2 144.3 366.4" transform="matrix(0.909,0,0,0.909,220.4545,-22.7273)" fill="transparent" stroke="#ef4444" stroke-width="2.75" stroke-opacity="0.85" ecmeta_series_index="0" ecmeta_data_index="8" ecmeta_ssr_type="chart" class="zr10-cls-179"></path>
<path d="M0 0L6.7 10L0 7.5L-6.7 10L0 0Z" transform="matrix(0.999,0.045,-0.045,0.999,351.6438,310.3657)" fill="#ef4444" fill-opacity="0.85" ecmeta_series_index="0" ecmeta_data_index="8" ecmeta_ssr_type="chart" class="zr10-cls-180"></path>
<path d="M150 320Q251.9 299.6 353.9 312.5" transform="matrix(0.909,0,0,0.909,220.4545,-22.7273)" fill="transparent" stroke="#ef4444" stroke-width="2.75" stroke-opacity="0.85" ecmeta_series_index="0" ecmeta_data_index="9" ecmeta_ssr_type="chart" class="zr10-cls-179"></path>
<path d="M0 0L6.6667 10L0 7.5L-6.6667 10L0 0Z" transform="matrix(-0.125,0.992,-0.992,-0.125,542.145,261.341)" fill="#ef4444" fill-opacity="0.85" ecmeta_series_index="0" ecmeta_data_index="9" ecmeta_ssr_type="chart" class="zr10-cls-180"></path>
<path d="M400 320Q390.6 273.2 393.8 226.3" transform="matrix(0.909,0,0,0.909,220.4545,-22.7273)" fill="transparent" stroke="#ef4444" stroke-width="2.75" stroke-opacity="0.85" ecmeta_series_index="0" ecmeta_data_index="10" ecmeta_ssr_type="chart" class="zr10-cls-179"></path>
<path d="M0 0L6.7 10L0 7.5L-6.7 10L0 0Z" transform="matrix(0.998,0.067,-0.067,0.998,578.4545,183.0336)" fill="#ef4444" fill-opacity="0.85" ecmeta_series_index="0" ecmeta_data_index="10" ecmeta_ssr_type="chart" class="zr10-cls-180"></path>
<path d="M150 320Q140.6 273.2 143.8 226.3" transform="matrix(0.909,0,0,0.909,220.4545,-22.7273)" fill="transparent" stroke="#ef4444" stroke-width="2.75" stroke-opacity="0.85" ecmeta_series_index="0" ecmeta_data_index="11" ecmeta_ssr_type="chart" class="zr10-cls-179"></path>
<path d="M0 0L6.7 10L0 7.5L-6.7 10L0 0Z" transform="matrix(0.998,0.067,-0.067,0.998,351.1817,183.0336)" fill="#ef4444" fill-opacity="0.85" ecmeta_series_index="0" ecmeta_data_index="11" ecmeta_ssr_type="chart" class="zr10-cls-180"></path>
<path d="M150 180Q144.6 153.2 145 126.5" transform="matrix(0.909,0,0,0.909,220.4545,-22.7273)" fill="transparent" stroke="#ef4444" stroke-width="2.75" stroke-opacity="0.85" ecmeta_series_index="0" ecmeta_data_index="12" ecmeta_ssr_type="chart" class="zr10-cls-179"></path>
<path d="M0 0L6.7 10L0 7.5L-6.7 10L0 0Z" transform="matrix(1,0.014,-0.014,1,352.2952,92.2587)" fill="#ef4444" fill-opacity="0.85" ecmeta_series_index="0" ecmeta_data_index="12" ecmeta_ssr_type="chart" class="zr10-cls-180"></path>
<path d="M1 0A1 1 0 1 1 1 -0.01" transform="matrix(42.5,0,0,42.5,356.8182,50)" fill="#5470c6" stroke="#1f2937" stroke-width="0.03529411764705882" ecmeta_series_index="0" ecmeta_data_index="0" ecmeta_ssr_type="chart" class="zr10-cls-181 zr10-cls-182"></path>
<path d="M1 0A1 1 0 1 1 1 -0.01" transform="matrix(42.5,0,0,42.5,356.8182,140.9091)" fill="#5470c6" stroke="#1f2937" stroke-width="0.03529411764705882" ecmeta_series_index="0" ecmeta_data_index="1" ecmeta_ssr_type="chart" class="zr10-cls-183 zr10-cls-182"></path>
<path d="M1 0A1 1 0 1 1 1 -0.01" transform="matrix(42.5,0,0,42.5,493.1818,204.5455)" fill="#5470c6" stroke="#1f2937" stroke-width="0.03529411764705882" ecmeta_series_index="0" ecmeta_data_index="2" ecmeta_ssr_type="chart" class="zr10-cls-184 zr10-cls-182"></path>
<path d="M1 0A1 1 0 1 1 1 -0.01" transform="matrix(42.5,0,0,42.5,356.8182,268.1818)" fill="#91cc75" stroke="#1f2937" stroke-width="0.03529411764705882" ecmeta_series_index="0" ecmeta_data_index="3" ecmeta_ssr_type="chart" class="zr10-cls-185 zr10-cls-186"></path>
<path d="M1 0A1 1 0 1 1 1 -0.01" transform="matrix(42.5,0,0,42.5,356.8182,377.2727)" fill="#fac858" stroke="#1f2937" stroke-width="0.03529411764705882" ecmeta_series_index="0" ecmeta_data_index="4" ecmeta_ssr_type="chart" class="zr10-cls-187 zr10-cls-188"></path>
<path d="M1 0A1 1 0 1 1 1 -0.01" transform="matrix(42.5,0,0,42.5,265.9091,450)" fill="#fac858" stroke="#1f2937" stroke-width="0.03529411764705882" ecmeta_series_index="0" ecmeta_data_index="5" ecmeta_ssr_type="chart" class="zr10-cls-189 zr10-cls-188"></path>
<path d="M1 0A1 1 0 1 1 1 -0.01" transform="matrix(42.5,0,0,42.5,356.8182,450)" fill="#fac858" stroke="#1f2937" stroke-width="0.03529411764705882" ecmeta_series_index="0" ecmeta_data_index="6" ecmeta_ssr_type="chart" class="zr10-cls-190 zr10-cls-188"></path>
<path d="M1 0A1 1 0 1 1 1 -0.01" transform="matrix(42.5,0,0,42.5,447.7273,450)" fill="#fac858" stroke="#1f2937" stroke-width="0.03529411764705882" ecmeta_series_index="0" ecmeta_data_index="7" ecmeta_ssr_type="chart" class="zr10-cls-191 zr10-cls-188"></path>
<path d="M1 0A1 1 0 1 1 1 -0.01" transform="matrix(42.5,0,0,42.5,584.0909,268.1818)" fill="#91cc75" stroke="#1f2937" stroke-width="0.03529411764705882" ecmeta_series_index="0" ecmeta_data_index="8" ecmeta_ssr_type="chart" class="zr10-cls-192 zr10-cls-186"></path>
<path d="M1 0A1 1 0 1 1 1 -0.01" transform="matrix(42.5,0,0,42.5,584.0909,140.9091)" fill="#ee6666" stroke="#1f2937" stroke-width="0.03529411764705882" ecmeta_series_index="0" ecmeta_data_index="9" ecmeta_ssr_type="chart" class="zr10-cls-193 zr10-cls-194"></path>
<text dominant-baseline="central" text-anchor="middle" style="font-size:12px;font-family:sans-serif;font-weight:bold;" transform="translate(356.8182 50)" fill="#eee" stroke="#5470c6" stroke-width="2" paint-order="stroke" stroke-miterlimit="2">base_agent.py</text>
<text dominant-baseline="central" text-anchor="middle" style="font-size:12px;font-family:sans-serif;font-weight:bold;" xml:space="preserve" transform="translate(356.8182 140.9091)" fill="#eee" stroke="#5470c6" stroke-width="2" paint-order="stroke" stroke-miterlimit="2">_runner.py (fast_rlm)</text>
<text dominant-baseline="central" text-anchor="middle" style="font-size:12px;font-family:sans-serif;font-weight:bold;" xml:space="preserve" transform="translate(493.1818 204.5455)" fill="#eee" stroke="#5470c6" stroke-width="2" paint-order="stroke" stroke-miterlimit="2">JSON / YAML Temp Files</text>
<text dominant-baseline="central" text-anchor="middle" style="font-size:12px;font-family:sans-serif;font-weight:bold;" xml:space="preserve" transform="translate(356.8182 268.1818)" fill="#333">Deno: subagents.ts</text>
<text dominant-baseline="central" text-anchor="middle" style="font-size:12px;font-family:sans-serif;font-weight:bold;" xml:space="preserve" transform="translate(356.8182 377.2727)" fill="#333">WASM: Pyodide Sandbox</text>
<text dominant-baseline="central" text-anchor="middle" style="font-size:12px;font-family:sans-serif;font-weight:bold;" xml:space="preserve" transform="translate(265.9091 450)" fill="#333">WASM in-memory FS</text>
<text dominant-baseline="central" text-anchor="middle" style="font-size:12px;font-family:sans-serif;font-weight:bold;" xml:space="preserve" transform="translate(356.8182 450)" fill="#333">requests / httpx (patched)</text>
<text dominant-baseline="central" text-anchor="middle" style="font-size:12px;font-family:sans-serif;font-weight:bold;" xml:space="preserve" transform="translate(447.7273 450)" fill="#333">Compiled Tool Sources</text>
<text dominant-baseline="central" text-anchor="middle" style="font-size:12px;font-family:sans-serif;font-weight:bold;" xml:space="preserve" transform="translate(584.0909 268.1818)" fill="#333">Deno: call_llm.ts</text>
<text dominant-baseline="central" text-anchor="middle" style="font-size:12px;font-family:sans-serif;font-weight:bold;" xml:space="preserve" transform="translate(584.0909 140.9091)" fill="#333">Vertex AI / AI Studio</text>
<path d="M-5 -5l661 0l0 26l-661 0Z" transform="translate(99.48 469)" fill="rgb(0,0,0)" fill-opacity="0" stroke="#ccc" stroke-width="0" class="zr10-cls-195"></path>
<path d="M3.5 0L21.5 0A3.5 3.5 0 0 1 25 3.5L25 10.5A3.5 3.5 0 0 1 21.5 14L3.5 14A3.5 3.5 0 0 1 0 10.5L0 3.5A3.5 3.5 0 0 1 3.5 0" transform="translate(100.48 470)" fill="#5470c6" stroke="#1f2937" stroke-width="2" stroke-linecap="butt" stroke-miterlimit="10" ecmeta_series_index="0" ecmeta_data_index="0" ecmeta_ssr_type="legend" ecmeta_silent="true" class="zr10-cls-195"></path>
<text dominant-baseline="central" text-anchor="start" style="font-size:12px;font-family:sans-serif;" xml:space="preserve" x="30" y="7" transform="translate(100.48 470)" fill="#333">Host Python Process</text>
<path d="M-1 -1l143.4 0l0 16l-143.4 0Z" transform="translate(100.48 470)" fill="transparent" ecmeta_series_index="0" ecmeta_data_index="0" ecmeta_ssr_type="legend" class="zr10-cls-196"></path>
<path d="M3.5 0L21.5 0A3.5 3.5 0 0 1 25 3.5L25 10.5A3.5 3.5 0 0 1 21.5 14L3.5 14A3.5 3.5 0 0 1 0 10.5L0 3.5A3.5 3.5 0 0 1 3.5 0" transform="translate(253.92 470)" fill="#91cc75" stroke="#1f2937" stroke-width="2" stroke-linecap="butt" stroke-miterlimit="10" ecmeta_series_index="0" ecmeta_data_index="1" ecmeta_ssr_type="legend" ecmeta_silent="true" class="zr10-cls-195"></path>
<text dominant-baseline="central" text-anchor="start" style="font-size:12px;font-family:sans-serif;" xml:space="preserve" x="30" y="7" transform="translate(253.92 470)" fill="#333">Deno Host Runtime</text>
<path d="M-1 -1l136 0l0 16l-136 0Z" transform="translate(253.92 470)" fill="transparent" ecmeta_series_index="0" ecmeta_data_index="1" ecmeta_ssr_type="legend" class="zr10-cls-196"></path>
<path d="M3.5 0L21.5 0A3.5 3.5 0 0 1 25 3.5L25 10.5A3.5 3.5 0 0 1 21.5 14L3.5 14A3.5 3.5 0 0 1 0 10.5L0 3.5A3.5 3.5 0 0 1 3.5 0" transform="translate(399.92 470)" fill="#fac858" stroke="#1f2937" stroke-width="2" stroke-linecap="butt" stroke-miterlimit="10" ecmeta_series_index="0" ecmeta_data_index="2" ecmeta_ssr_type="legend" ecmeta_silent="true" class="zr10-cls-195"></path>
<text dominant-baseline="central" text-anchor="start" style="font-size:12px;font-family:sans-serif;" xml:space="preserve" x="30" y="7" transform="translate(399.92 470)" fill="#333">WebAssembly Pyodide REPL</text>
<path d="M-1 -1l189.5 0l0 16l-189.5 0Z" transform="translate(399.92 470)" fill="transparent" ecmeta_series_index="0" ecmeta_data_index="2" ecmeta_ssr_type="legend" class="zr10-cls-196"></path>
<path d="M3.5 0L21.5 0A3.5 3.5 0 0 1 25 3.5L25 10.5A3.5 3.5 0 0 1 21.5 14L3.5 14A3.5 3.5 0 0 1 0 10.5L0 3.5A3.5 3.5 0 0 1 3.5 0" transform="translate(599.44 470)" fill="#ee6666" stroke="#1f2937" stroke-width="2" stroke-linecap="butt" stroke-miterlimit="10" ecmeta_series_index="0" ecmeta_data_index="3" ecmeta_ssr_type="legend" ecmeta_silent="true" class="zr10-cls-195"></path>
<text dominant-baseline="central" text-anchor="start" style="font-size:12px;font-family:sans-serif;" xml:space="preserve" x="30" y="7" transform="translate(599.44 470)" fill="#333">External Provider APIs</text>
<path d="M-1 -1l152.1 0l0 16l-152.1 0Z" transform="translate(599.44 470)" fill="transparent" ecmeta_series_index="0" ecmeta_data_index="3" ecmeta_ssr_type="legend" class="zr10-cls-196"></path>
<path d="M-240.7 -5l481.4 0l0 50l-481.4 0Z" transform="translate(425 5)" fill="rgb(0,0,0)" fill-opacity="0" stroke="#ccc" stroke-width="0" class="zr10-cls-195"></path>
<text dominant-baseline="central" text-anchor="middle" style="font-size:18px;font-family:sans-serif;font-weight:bold;" xml:space="preserve" y="9" transform="translate(425 5)" fill="#991b1b">6. Fast-RLM Sandbox Internals Architecture</text>
<text dominant-baseline="central" text-anchor="middle" style="font-size:12px;font-family:sans-serif;" xml:space="preserve" y="34" transform="translate(425 5)" fill="#6E7079">Deep Orchestration of Host, Deno, and Isolated WebAssembly Pyodide REPL Container</text>
<style ><![CDATA[
.zr10-cls-179:hover {
cursor:pointer;
}
.zr10-cls-180:hover {
cursor:pointer;
fill:rgba(255,74,74,1);
}
.zr10-cls-181 {
animation:zr10-ani-0 1s cubic-bezier(0.65,0,0.35,1) both;
}
.zr10-cls-182:hover {
cursor:pointer;
fill:rgba(92,123,217,1);
}
.zr10-cls-183 {
animation:zr10-ani-1 1s cubic-bezier(0.65,0,0.35,1) both;
}
.zr10-cls-184 {
animation:zr10-ani-2 1s cubic-bezier(0.65,0,0.35,1) both;
}
.zr10-cls-185 {
animation:zr10-ani-3 1s cubic-bezier(0.65,0,0.35,1) both;
}
.zr10-cls-186:hover {
cursor:pointer;
fill:rgba(159,224,128,1);
}
.zr10-cls-187 {
animation:zr10-ani-4 1s cubic-bezier(0.65,0,0.35,1) both;
}
.zr10-cls-188:hover {
cursor:pointer;
fill:rgba(255,220,96,1);
}
.zr10-cls-189 {
animation:zr10-ani-5 1s cubic-bezier(0.65,0,0.35,1) both;
}
.zr10-cls-190 {
animation:zr10-ani-6 1s cubic-bezier(0.65,0,0.35,1) both;
}
.zr10-cls-191 {
animation:zr10-ani-7 1s cubic-bezier(0.65,0,0.35,1) both;
}
.zr10-cls-192 {
animation:zr10-ani-8 1s cubic-bezier(0.65,0,0.35,1) both;
}
.zr10-cls-193 {
animation:zr10-ani-9 1s cubic-bezier(0.65,0,0.35,1) both;
}
.zr10-cls-194:hover {
cursor:pointer;
fill:rgba(255,112,112,1);
}
.zr10-cls-195:hover {
pointer-events:none;
}
.zr10-cls-196:hover {
cursor:pointer;
fill:rgba(0,0,0,0);
}
@keyframes zr10-ani-0 {
0% {
transform:scale(0,0);
opacity:0;
}
100% {
transform:scale(42.5,42.5);
opacity:1;
}
}
@keyframes zr10-ani-1 {
0% {
transform:scale(0,0);
opacity:0;
}
100% {
transform:scale(42.5,42.5);
opacity:1;
}
}
@keyframes zr10-ani-2 {
0% {
transform:scale(0,0);
opacity:0;
}
100% {
transform:scale(42.5,42.5);
opacity:1;
}
}
@keyframes zr10-ani-3 {
0% {
transform:scale(0,0);
opacity:0;
}
100% {
transform:scale(42.5,42.5);
opacity:1;
}
}
@keyframes zr10-ani-4 {
0% {
transform:scale(0,0);
opacity:0;
}
100% {
transform:scale(42.5,42.5);
opacity:1;
}
}
@keyframes zr10-ani-5 {
0% {
transform:scale(0,0);
opacity:0;
}
100% {
transform:scale(42.5,42.5);
opacity:1;
}
}
@keyframes zr10-ani-6 {
0% {
transform:scale(0,0);
opacity:0;
}
100% {
transform:scale(42.5,42.5);
opacity:1;
}
}
@keyframes zr10-ani-7 {
0% {
transform:scale(0,0);
opacity:0;
}
100% {
transform:scale(42.5,42.5);
opacity:1;
}
}
@keyframes zr10-ani-8 {
0% {
transform:scale(0,0);
opacity:0;
}
100% {
transform:scale(42.5,42.5);
opacity:1;
}
}
@keyframes zr10-ani-9 {
0% {
transform:scale(0,0);
opacity:0;
}
100% {
transform:scale(42.5,42.5);
opacity:1;
}
}
]]>

</style>
</svg>