<svg width="850" height="500" xmlns="http://www.w3.org/2000/svg" xmlns:xlink="http://www.w3.org/1999/xlink" version="1.1" baseProfile="full" viewBox="0 0 850 500">
<rect width="850" height="500" x="0" y="0" fill="none"></rect>
<path d="M250 50Q255.7 78.4 254.9 106.7" transform="matrix(0.976,0,0,0.976,181.0976,1.2195)" fill="transparent" stroke="#ec4899" stroke-width="2.5625" stroke-opacity="0.85" ecmeta_series_index="0" ecmeta_data_index="0" ecmeta_ssr_type="chart" class="zr9-cls-164"></path>
<path d="M0 0L6.6667 10L0 7.5L-6.6667 10L0 0Z" transform="matrix(-1,-0.027,0.027,-1,429.7901,105.3318)" fill="#ec4899" fill-opacity="0.85" ecmeta_series_index="0" ecmeta_data_index="0" ecmeta_ssr_type="chart" class="zr9-cls-165"></path>
<path d="M250 150Q222.2 191.7 184.8 223.7" transform="matrix(0.976,0,0,0.976,181.0976,1.2195)" fill="transparent" stroke="#ec4899" stroke-width="2.5625" stroke-opacity="0.85" ecmeta_series_index="0" ecmeta_data_index="1" ecmeta_ssr_type="chart" class="zr9-cls-164"></path>
<path d="M0 0L6.6667 10L0 7.5L-6.6667 10L0 0Z" transform="matrix(-0.65,-0.76,0.76,-0.65,361.3418,219.4929)" fill="#ec4899" fill-opacity="0.85" ecmeta_series_index="0" ecmeta_data_index="1" ecmeta_ssr_type="chart" class="zr9-cls-165"></path>
<path d="M250 150Q291.7 177.8 323.7 215.2" transform="matrix(0.976,0,0,0.976,181.0976,1.2195)" fill="transparent" stroke="#ec4899" stroke-width="2.5625" stroke-opacity="0.85" ecmeta_series_index="0" ecmeta_data_index="2" ecmeta_ssr_type="chart" class="zr9-cls-164"></path>
<path d="M0 0L6.6667 10L0 7.5L-6.6667 10L0 0Z" transform="matrix(-0.76,0.65,-0.65,-0.76,496.9319,211.2191)" fill="#ec4899" fill-opacity="0.85" ecmeta_series_index="0" ecmeta_data_index="2" ecmeta_ssr_type="chart" class="zr9-cls-165"></path>
<path d="M150 250Q156.7 283.4 155.2 316.8" transform="matrix(0.976,0,0,0.976,181.0976,1.2195)" fill="transparent" stroke="#ec4899" stroke-width="2.5625" stroke-opacity="0.85" ecmeta_series_index="0" ecmeta_data_index="3" ecmeta_ssr_type="chart" class="zr9-cls-164"></path>
<path d="M0 0L6.6667 10L0 7.5L-6.6667 10L0 0Z" transform="matrix(-0.999,-0.043,0.043,-0.999,332.5598,310.2488)" fill="#ec4899" fill-opacity="0.85" ecmeta_series_index="0" ecmeta_data_index="3" ecmeta_ssr_type="chart" class="zr9-cls-165"></path>
<path d="M150 250Q240.1 278.4 315.7 333.2" transform="matrix(0.976,0,0,0.976,181.0976,1.2195)" fill="transparent" stroke="#ec4899" stroke-width="2.5625" stroke-opacity="0.85" ecmeta_series_index="0" ecmeta_data_index="4" ecmeta_ssr_type="chart" class="zr9-cls-164"></path>
<path d="M0 0L6.6667 10L0 7.5L-6.6667 10L0 0Z" transform="matrix(-0.587,0.81,-0.81,-0.587,489.0846,326.2554)" fill="#ec4899" fill-opacity="0.85" ecmeta_series_index="0" ecmeta_data_index="4" ecmeta_ssr_type="chart" class="zr9-cls-165"></path>
<path d="M350 250Q277.8 310.9 191 345.4" transform="matrix(0.976,0,0,0.976,181.0976,1.2195)" fill="transparent" stroke="#ec4899" stroke-width="2.5625" stroke-opacity="0.85" ecmeta_series_index="0" ecmeta_data_index="5" ecmeta_ssr_type="chart" class="zr9-cls-164"></path>
<path d="M0 0L6.6667 10L0 7.5L-6.6667 10L0 0Z" transform="matrix(-0.37,-0.929,0.929,-0.37,367.4787,338.1888)" fill="#ec4899" fill-opacity="0.85" ecmeta_series_index="0" ecmeta_data_index="5" ecmeta_ssr_type="chart" class="zr9-cls-165"></path>
<path d="M350 250Q356.7 283.4 355.2 316.8" transform="matrix(0.976,0,0,0.976,181.0976,1.2195)" fill="transparent" stroke="#ec4899" stroke-width="2.5625" stroke-opacity="0.85" ecmeta_series_index="0" ecmeta_data_index="6" ecmeta_ssr_type="chart" class="zr9-cls-164"></path>
<path d="M0 0L6.6667 10L0 7.5L-6.6667 10L0 0Z" transform="matrix(-0.999,-0.043,0.043,-0.999,527.6817,310.2488)" fill="#ec4899" fill-opacity="0.85" ecmeta_series_index="0" ecmeta_data_index="6" ecmeta_ssr_type="chart" class="zr9-cls-165"></path>
<path d="M150 360Q191.7 387.8 223.7 425.2" transform="matrix(0.976,0,0,0.976,181.0976,1.2195)" fill="transparent" stroke="#ec4899" stroke-width="2.5625" stroke-opacity="0.85" ecmeta_series_index="0" ecmeta_data_index="7" ecmeta_ssr_type="chart" class="zr9-cls-164"></path>
<path d="M0 0L6.6667 10L0 7.5L-6.6667 10L0 0Z" transform="matrix(-0.76,0.65,-0.65,-0.76,399.3709,416.0972)" fill="#ec4899" fill-opacity="0.85" ecmeta_series_index="0" ecmeta_data_index="7" ecmeta_ssr_type="chart" class="zr9-cls-165"></path>
<path d="M350 360Q322.2 401.7 284.8 433.7" transform="matrix(0.976,0,0,0.976,181.0976,1.2195)" fill="transparent" stroke="#ec4899" stroke-width="2.5625" stroke-opacity="0.85" ecmeta_series_index="0" ecmeta_data_index="8" ecmeta_ssr_type="chart" class="zr9-cls-164"></path>
<path d="M0 0L6.6667 10L0 7.5L-6.6667 10L0 0Z" transform="matrix(-0.65,-0.76,0.76,-0.65,458.9028,424.3709)" fill="#ec4899" fill-opacity="0.85" ecmeta_series_index="0" ecmeta_data_index="8" ecmeta_ssr_type="chart" class="zr9-cls-165"></path>
<path d="M1 0A1 1 0 1 1 1 -0.01" transform="matrix(42.5,0,0,42.5,425,50)" fill="#5470c6" stroke="#1f2937" stroke-width="0.03529411764705882" ecmeta_series_index="0" ecmeta_data_index="0" ecmeta_ssr_type="chart" class="zr9-cls-166 zr9-cls-167"></path>
<path d="M1 0A1 1 0 1 1 1 -0.01" transform="matrix(42.5,0,0,42.5,425,147.561)" fill="#91cc75" stroke="#1f2937" stroke-width="0.03529411764705882" ecmeta_series_index="0" ecmeta_data_index="1" ecmeta_ssr_type="chart" class="zr9-cls-168 zr9-cls-169"></path>
<path d="M1 0A1 1 0 1 1 1 -0.01" transform="matrix(42.5,0,0,42.5,327.439,245.122)" fill="#fac858" stroke="#1f2937" stroke-width="0.03529411764705882" ecmeta_series_index="0" ecmeta_data_index="2" ecmeta_ssr_type="chart" class="zr9-cls-170 zr9-cls-171"></path>
<path d="M1 0A1 1 0 1 1 1 -0.01" transform="matrix(42.5,0,0,42.5,522.561,245.122)" fill="#fac858" stroke="#1f2937" stroke-width="0.03529411764705882" ecmeta_series_index="0" ecmeta_data_index="3" ecmeta_ssr_type="chart" class="zr9-cls-172 zr9-cls-171"></path>
<path d="M1 0A1 1 0 1 1 1 -0.01" transform="matrix(42.5,0,0,42.5,327.439,352.439)" fill="#ee6666" stroke="#1f2937" stroke-width="0.03529411764705882" ecmeta_series_index="0" ecmeta_data_index="4" ecmeta_ssr_type="chart" class="zr9-cls-173 zr9-cls-174"></path>
<path d="M1 0A1 1 0 1 1 1 -0.01" transform="matrix(42.5,0,0,42.5,522.561,352.439)" fill="#ee6666" stroke="#1f2937" stroke-width="0.03529411764705882" ecmeta_series_index="0" ecmeta_data_index="5" ecmeta_ssr_type="chart" class="zr9-cls-175 zr9-cls-174"></path>
<path d="M1 0A1 1 0 1 1 1 -0.01" transform="matrix(42.5,0,0,42.5,425,450)" fill="#91cc75" stroke="#1f2937" stroke-width="0.03529411764705882" ecmeta_series_index="0" ecmeta_data_index="6" ecmeta_ssr_type="chart" class="zr9-cls-176 zr9-cls-169"></path>
<text dominant-baseline="central" text-anchor="middle" style="font-size:12px;font-family:sans-serif;font-weight:bold;" xml:space="preserve" transform="translate(425 50)" fill="#eee" stroke="#5470c6" stroke-width="2" paint-order="stroke" stroke-miterlimit="2">Canary Release Split</text>
<text dominant-baseline="central" text-anchor="middle" style="font-size:12px;font-family:sans-serif;font-weight:bold;" transform="translate(425 147.561)" fill="#333">FeedbackAgent</text>
<text dominant-baseline="central" text-anchor="middle" style="font-size:12px;font-family:sans-serif;font-weight:bold;" xml:space="preserve" transform="translate(327.439 245.122)" fill="#333">SLA Latency Check</text>
<text dominant-baseline="central" text-anchor="middle" style="font-size:12px;font-family:sans-serif;font-weight:bold;" xml:space="preserve" transform="translate(522.561 245.122)" fill="#333">SLA Relevance Check</text>
<text dominant-baseline="central" text-anchor="middle" style="font-size:12px;font-family:sans-serif;font-weight:bold;" xml:space="preserve" transform="translate(327.439 352.439)" fill="#333">APPROVED Verdict</text>
<text dominant-baseline="central" text-anchor="middle" style="font-size:12px;font-family:sans-serif;font-weight:bold;" xml:space="preserve" transform="translate(522.561 352.439)" fill="#333">REJECTED Verdict</text>
<text dominant-baseline="central" text-anchor="middle" style="font-size:12px;font-family:sans-serif;font-weight:bold;" xml:space="preserve" transform="translate(425 450)" fill="#333">MLflow Audit Log</text>
<path d="M-5 -5l606.3 0l0 26l-606.3 0Z" transform="translate(126.84 469)" fill="rgb(0,0,0)" fill-opacity="0" stroke="#ccc" stroke-width="0" class="zr9-cls-177"></path>
<path d="M3.5 0L21.5 0A3.5 3.5 0 0 1 25 3.5L25 10.5A3.5 3.5 0 0 1 21.5 14L3.5 14A3.5 3.5 0 0 1 0 10.5L0 3.5A3.5 3.5 0 0 1 3.5 0" transform="translate(127.84 470)" fill="#5470c6" stroke="#1f2937" stroke-width="2" stroke-linecap="butt" stroke-miterlimit="10" ecmeta_series_index="0" ecmeta_data_index="0" ecmeta_ssr_type="legend" ecmeta_silent="true" class="zr9-cls-177"></path>
<text dominant-baseline="central" text-anchor="start" style="font-size:12px;font-family:sans-serif;" xml:space="preserve" x="30" y="7" transform="translate(127.84 470)" fill="#333">Deployment Status</text>
<path d="M-1 -1l132.8 0l0 16l-132.8 0Z" transform="translate(127.84 470)" fill="transparent" ecmeta_series_index="0" ecmeta_data_index="0" ecmeta_ssr_type="legend" class="zr9-cls-178"></path>
<path d="M3.5 0L21.5 0A3.5 3.5 0 0 1 25 3.5L25 10.5A3.5 3.5 0 0 1 21.5 14L3.5 14A3.5 3.5 0 0 1 0 10.5L0 3.5A3.5 3.5 0 0 1 3.5 0" transform="translate(270.6 470)" fill="#91cc75" stroke="#1f2937" stroke-width="2" stroke-linecap="butt" stroke-miterlimit="10" ecmeta_series_index="0" ecmeta_data_index="1" ecmeta_ssr_type="legend" ecmeta_silent="true" class="zr9-cls-177"></path>
<text dominant-baseline="central" text-anchor="start" style="font-size:12px;font-family:sans-serif;" xml:space="preserve" x="30" y="7" transform="translate(270.6 470)" fill="#333">Post-Release Supervisor</text>
<path d="M-1 -1l164.1 0l0 16l-164.1 0Z" transform="translate(270.6 470)" fill="transparent" ecmeta_series_index="0" ecmeta_data_index="1" ecmeta_ssr_type="legend" class="zr9-cls-178"></path>
<path d="M3.5 0L21.5 0A3.5 3.5 0 0 1 25 3.5L25 10.5A3.5 3.5 0 0 1 21.5 14L3.5 14A3.5 3.5 0 0 1 0 10.5L0 3.5A3.5 3.5 0 0 1 3.5 0" transform="translate(444.68 470)" fill="#fac858" stroke="#1f2937" stroke-width="2" stroke-linecap="butt" stroke-miterlimit="10" ecmeta_series_index="0" ecmeta_data_index="2" ecmeta_ssr_type="legend" ecmeta_silent="true" class="zr9-cls-177"></path>
<text dominant-baseline="central" text-anchor="start" style="font-size:12px;font-family:sans-serif;" xml:space="preserve" x="30" y="7" transform="translate(444.68 470)" fill="#333">Gating Rules Auditing</text>
<path d="M-1 -1l147.5 0l0 16l-147.5 0Z" transform="translate(444.68 470)" fill="transparent" ecmeta_series_index="0" ecmeta_data_index="2" ecmeta_ssr_type="legend" class="zr9-cls-178"></path>
<path d="M3.5 0L21.5 0A3.5 3.5 0 0 1 25 3.5L25 10.5A3.5 3.5 0 0 1 21.5 14L3.5 14A3.5 3.5 0 0 1 0 10.5L0 3.5A3.5 3.5 0 0 1 3.5 0" transform="translate(602.2 470)" fill="#ee6666" stroke="#1f2937" stroke-width="2" stroke-linecap="butt" stroke-miterlimit="10" ecmeta_series_index="0" ecmeta_data_index="3" ecmeta_ssr_type="legend" ecmeta_silent="true" class="zr9-cls-177"></path>
<text dominant-baseline="central" text-anchor="start" style="font-size:12px;font-family:sans-serif;" xml:space="preserve" x="30" y="7" transform="translate(602.2 470)" fill="#333">Release Verdicts</text>
<path d="M-1 -1l122 0l0 16l-122 0Z" transform="translate(602.2 470)" fill="transparent" ecmeta_series_index="0" ecmeta_data_index="3" ecmeta_ssr_type="legend" class="zr9-cls-178"></path>
<path d="M-216.6 -5l433.2 0l0 50l-433.2 0Z" transform="translate(425 5)" fill="rgb(0,0,0)" fill-opacity="0" stroke="#ccc" stroke-width="0" class="zr9-cls-177"></path>
<text dominant-baseline="central" text-anchor="middle" style="font-size:18px;font-family:sans-serif;font-weight:bold;" xml:space="preserve" y="9" transform="translate(425 5)" fill="#9d174d">5. Feedback Guardrail Architecture</text>
<text dominant-baseline="central" text-anchor="middle" style="font-size:12px;font-family:sans-serif;" xml:space="preserve" y="34" transform="translate(425 5)" fill="#6E7079">Auditing Canary Splits, Validating SLAs, and Pushing Verdicts to MLflow Spans</text>
<style ><![CDATA[
.zr9-cls-164:hover {
cursor:pointer;
}
.zr9-cls-165:hover {
cursor:pointer;
fill:rgba(255,79,168,1);
}
.zr9-cls-166 {
animation:zr9-ani-0 1s cubic-bezier(0.65,0,0.35,1) both;
}
.zr9-cls-167:hover {
cursor:pointer;
fill:rgba(92,123,217,1);
}
.zr9-cls-168 {
animation:zr9-ani-1 1s cubic-bezier(0.65,0,0.35,1) both;
}
.zr9-cls-169:hover {
cursor:pointer;
fill:rgba(159,224,128,1);
}
.zr9-cls-170 {
animation:zr9-ani-2 1s cubic-bezier(0.65,0,0.35,1) both;
}
.zr9-cls-171:hover {
cursor:pointer;
fill:rgba(255,220,96,1);
}
.zr9-cls-172 {
animation:zr9-ani-3 1s cubic-bezier(0.65,0,0.35,1) both;
}
.zr9-cls-173 {
animation:zr9-ani-4 1s cubic-bezier(0.65,0,0.35,1) both;
}
.zr9-cls-174:hover {
cursor:pointer;
fill:rgba(255,112,112,1);
}
.zr9-cls-175 {
animation:zr9-ani-5 1s cubic-bezier(0.65,0,0.35,1) both;
}
.zr9-cls-176 {
animation:zr9-ani-6 1s cubic-bezier(0.65,0,0.35,1) both;
}
.zr9-cls-177:hover {
pointer-events:none;
}
.zr9-cls-178:hover {
cursor:pointer;
fill:rgba(0,0,0,0);
}
@keyframes zr9-ani-0 {
0% {
transform:scale(0,0);
opacity:0;
}
100% {
transform:scale(42.5,42.5);
opacity:1;
}
}
@keyframes zr9-ani-1 {
0% {
transform:scale(0,0);
opacity:0;
}
100% {
transform:scale(42.5,42.5);
opacity:1;
}
}
@keyframes zr9-ani-2 {
0% {
transform:scale(0,0);
opacity:0;
}
100% {
transform:scale(42.5,42.5);
opacity:1;
}
}
@keyframes zr9-ani-3 {
0% {
transform:scale(0,0);
opacity:0;
}
100% {
transform:scale(42.5,42.5);
opacity:1;
}
}
@keyframes zr9-ani-4 {
0% {
transform:scale(0,0);
opacity:0;
}
100% {
transform:scale(42.5,42.5);
opacity:1;
}
}
@keyframes zr9-ani-5 {
0% {
transform:scale(0,0);
opacity:0;
}
100% {
transform:scale(42.5,42.5);
opacity:1;
}
}
@keyframes zr9-ani-6 {
0% {
transform:scale(0,0);
opacity:0;
}
100% {
transform:scale(42.5,42.5);
opacity:1;
}
}
]]>

</style>
</svg>