<svg width="850" height="500" xmlns="http://www.w3.org/2000/svg" xmlns:xlink="http://www.w3.org/1999/xlink" version="1.1" baseProfile="full" viewBox="0 0 850 500">
<rect width="850" height="500" x="0" y="0" fill="none"></rect>
<path d="M250 50Q254.6 73 255 96" transform="matrix(0.784,0,0,0.784,228.9216,10.7843)" fill="transparent" stroke="#f59e0b" stroke-width="3.1874999999999996" stroke-opacity="0.85" ecmeta_series_index="0" ecmeta_data_index="0" ecmeta_ssr_type="chart" class="zr8-cls-148"></path>
<path d="M0 0L6.6667 10L0 7.5L-6.6667 10L0 0Z" transform="matrix(-1,0.016,-0.016,-1,428.897,86.1104)" fill="#f59e0b" fill-opacity="0.85" ecmeta_series_index="0" ecmeta_data_index="0" ecmeta_ssr_type="chart" class="zr8-cls-149"></path>
<path d="M250 150Q225.2 187.2 192.7 216.7" transform="matrix(0.784,0,0,0.784,228.9216,10.7843)" fill="transparent" stroke="#f59e0b" stroke-width="3.1874999999999996" stroke-opacity="0.85" ecmeta_series_index="0" ecmeta_data_index="1" ecmeta_ssr_type="chart" class="zr8-cls-148"></path>
<path d="M0 0L6.6667 10L0 7.5L-6.6667 10L0 0Z" transform="matrix(-0.672,-0.74,0.74,-0.672,380.0891,180.7356)" fill="#f59e0b" fill-opacity="0.85" ecmeta_series_index="0" ecmeta_data_index="1" ecmeta_ssr_type="chart" class="zr8-cls-149"></path>
<path d="M250 150Q287.2 174.8 316.7 207.3" transform="matrix(0.784,0,0,0.784,228.9216,10.7843)" fill="transparent" stroke="#f59e0b" stroke-width="3.1874999999999996" stroke-opacity="0.85" ecmeta_series_index="0" ecmeta_data_index="2" ecmeta_ssr_type="chart" class="zr8-cls-148"></path>
<path d="M0 0L6.6667 10L0 7.5L-6.6667 10L0 0Z" transform="matrix(-0.74,0.672,-0.672,-0.74,477.3042,173.3423)" fill="#f59e0b" fill-opacity="0.85" ecmeta_series_index="0" ecmeta_data_index="2" ecmeta_ssr_type="chart" class="zr8-cls-149"></path>
<path d="M150 250Q155.6 278 155.5 306.1" transform="matrix(0.784,0,0,0.784,228.9216,10.7843)" fill="transparent" stroke="#f59e0b" stroke-width="3.1874999999999996" stroke-opacity="0.85" ecmeta_series_index="0" ecmeta_data_index="3" ecmeta_ssr_type="chart" class="zr8-cls-148"></path>
<path d="M0 0L6.6667 10L0 7.5L-6.6667 10L0 0Z" transform="matrix(-1,-0.004,0.004,-1,350.8807,250.8566)" fill="#f59e0b" fill-opacity="0.85" ecmeta_series_index="0" ecmeta_data_index="3" ecmeta_ssr_type="chart" class="zr8-cls-149"></path>
<path d="M150 250Q235 276.8 307 327" transform="matrix(0.784,0,0,0.784,228.9216,10.7843)" fill="transparent" stroke="#f59e0b" stroke-width="3.1874999999999996" stroke-opacity="0.85" ecmeta_series_index="0" ecmeta_data_index="4" ecmeta_ssr_type="chart" class="zr8-cls-148"></path>
<path d="M0 0L6.6667 10L0 7.5L-6.6667 10L0 0Z" transform="matrix(-0.572,0.82,-0.82,-0.572,469.7199,267.2571)" fill="#f59e0b" fill-opacity="0.85" ecmeta_series_index="0" ecmeta_data_index="4" ecmeta_ssr_type="chart" class="zr8-cls-149"></path>
<path d="M350 250Q281.9 307.4 200.9 341.4" transform="matrix(0.784,0,0,0.784,228.9216,10.7843)" fill="transparent" stroke="#f59e0b" stroke-width="3.1874999999999996" stroke-opacity="0.85" ecmeta_series_index="0" ecmeta_data_index="5" ecmeta_ssr_type="chart" class="zr8-cls-148"></path>
<path d="M0 0L6.6667 10L0 7.5L-6.6667 10L0 0Z" transform="matrix(-0.387,-0.922,0.922,-0.387,386.478,278.526)" fill="#f59e0b" fill-opacity="0.85" ecmeta_series_index="0" ecmeta_data_index="5" ecmeta_ssr_type="chart" class="zr8-cls-149"></path>
<path d="M350 250Q355.6 278 355.5 306.1" transform="matrix(0.784,0,0,0.784,228.9216,10.7843)" fill="transparent" stroke="#f59e0b" stroke-width="3.1874999999999996" stroke-opacity="0.85" ecmeta_series_index="0" ecmeta_data_index="6" ecmeta_ssr_type="chart" class="zr8-cls-148"></path>
<path d="M0 0L6.6667 10L0 7.5L-6.6667 10L0 0Z" transform="matrix(-1,-0.004,0.004,-1,507.7434,250.8566)" fill="#f59e0b" fill-opacity="0.85" ecmeta_series_index="0" ecmeta_data_index="6" ecmeta_ssr_type="chart" class="zr8-cls-149"></path>
<path d="M150 360Q187.2 384.8 216.7 417.3" transform="matrix(0.784,0,0,0.784,228.9216,10.7843)" fill="transparent" stroke="#f59e0b" stroke-width="3.1874999999999996" stroke-opacity="0.85" ecmeta_series_index="0" ecmeta_data_index="7" ecmeta_ssr_type="chart" class="zr8-cls-148"></path>
<path d="M0 0L6.6667 10L0 7.5L-6.6667 10L0 0Z" transform="matrix(-0.74,0.672,-0.672,-0.74,398.8728,338.0482)" fill="#f59e0b" fill-opacity="0.85" ecmeta_series_index="0" ecmeta_data_index="7" ecmeta_ssr_type="chart" class="zr8-cls-149"></path>
<path d="M350 360Q325.2 397.2 292.7 426.7" transform="matrix(0.784,0,0,0.784,228.9216,10.7843)" fill="transparent" stroke="#f59e0b" stroke-width="3.1874999999999996" stroke-opacity="0.85" ecmeta_series_index="0" ecmeta_data_index="8" ecmeta_ssr_type="chart" class="zr8-cls-148"></path>
<path d="M0 0L6.6667 10L0 7.5L-6.6667 10L0 0Z" transform="matrix(-0.672,-0.74,0.74,-0.672,458.5205,345.4415)" fill="#f59e0b" fill-opacity="0.85" ecmeta_series_index="0" ecmeta_data_index="8" ecmeta_ssr_type="chart" class="zr8-cls-149"></path>
<path d="M250 460Q254.6 483 255 506" transform="matrix(0.784,0,0,0.784,228.9216,10.7843)" fill="transparent" stroke="#f59e0b" stroke-width="3.1874999999999996" stroke-opacity="0.85" ecmeta_series_index="0" ecmeta_data_index="9" ecmeta_ssr_type="chart" class="zr8-cls-148"></path>
<path d="M0 0L6.6667 10L0 7.5L-6.6667 10L0 0Z" transform="matrix(-1,0.016,-0.016,-1,428.897,407.6791)" fill="#f59e0b" fill-opacity="0.85" ecmeta_series_index="0" ecmeta_data_index="9" ecmeta_ssr_type="chart" class="zr8-cls-149"></path>
<path d="M1 0A1 1 0 1 1 1 -0.01" transform="matrix(42.5,0,0,42.5,425,50)" fill="#5470c6" stroke="#1f2937" stroke-width="0.03529411764705882" ecmeta_series_index="0" ecmeta_data_index="0" ecmeta_ssr_type="chart" class="zr8-cls-150 zr8-cls-151"></path>
<path d="M1 0A1 1 0 1 1 1 -0.01" transform="matrix(42.5,0,0,42.5,425,128.4314)" fill="#91cc75" stroke="#1f2937" stroke-width="0.03529411764705882" ecmeta_series_index="0" ecmeta_data_index="1" ecmeta_ssr_type="chart" class="zr8-cls-152 zr8-cls-153"></path>
<path d="M1 0A1 1 0 1 1 1 -0.01" transform="matrix(42.5,0,0,42.5,346.5686,206.8627)" fill="#91cc75" stroke="#1f2937" stroke-width="0.03529411764705882" ecmeta_series_index="0" ecmeta_data_index="2" ecmeta_ssr_type="chart" class="zr8-cls-154 zr8-cls-153"></path>
<path d="M1 0A1 1 0 1 1 1 -0.01" transform="matrix(42.5,0,0,42.5,503.4314,206.8627)" fill="#91cc75" stroke="#1f2937" stroke-width="0.03529411764705882" ecmeta_series_index="0" ecmeta_data_index="3" ecmeta_ssr_type="chart" class="zr8-cls-155 zr8-cls-153"></path>
<path d="M1 0A1 1 0 1 1 1 -0.01" transform="matrix(42.5,0,0,42.5,346.5686,293.1373)" fill="#fac858" stroke="#1f2937" stroke-width="0.03529411764705882" ecmeta_series_index="0" ecmeta_data_index="4" ecmeta_ssr_type="chart" class="zr8-cls-156 zr8-cls-157"></path>
<path d="M1 0A1 1 0 1 1 1 -0.01" transform="matrix(42.5,0,0,42.5,503.4314,293.1373)" fill="#fac858" stroke="#1f2937" stroke-width="0.03529411764705882" ecmeta_series_index="0" ecmeta_data_index="5" ecmeta_ssr_type="chart" class="zr8-cls-158 zr8-cls-157"></path>
<path d="M1 0A1 1 0 1 1 1 -0.01" transform="matrix(42.5,0,0,42.5,425,371.5686)" fill="#fac858" stroke="#1f2937" stroke-width="0.03529411764705882" ecmeta_series_index="0" ecmeta_data_index="6" ecmeta_ssr_type="chart" class="zr8-cls-159 zr8-cls-157"></path>
<path d="M1 0A1 1 0 1 1 1 -0.01" transform="matrix(42.5,0,0,42.5,425,450)" fill="#ee6666" stroke="#1f2937" stroke-width="0.03529411764705882" ecmeta_series_index="0" ecmeta_data_index="7" ecmeta_ssr_type="chart" class="zr8-cls-160 zr8-cls-161"></path>
<text dominant-baseline="central" text-anchor="middle" style="font-size:12px;font-family:sans-serif;font-weight:bold;" transform="translate(425 50)" fill="#eee" stroke="#5470c6" stroke-width="2" paint-order="stroke" stroke-miterlimit="2">TrafficMirror</text>
<text dominant-baseline="central" text-anchor="middle" style="font-size:12px;font-family:sans-serif;font-weight:bold;" xml:space="preserve" transform="translate(425 128.4314)" fill="#333">ModelClient (Router)</text>
<text dominant-baseline="central" text-anchor="middle" style="font-size:12px;font-family:sans-serif;font-weight:bold;" xml:space="preserve" transform="translate(346.5686 206.8627)" fill="#333">Champion Model</text>
<text dominant-baseline="central" text-anchor="middle" style="font-size:12px;font-family:sans-serif;font-weight:bold;" xml:space="preserve" transform="translate(503.4314 206.8627)" fill="#333">Challenger Model</text>
<text dominant-baseline="central" text-anchor="middle" style="font-size:12px;font-family:sans-serif;font-weight:bold;" xml:space="preserve" transform="translate(346.5686 293.1373)" fill="#333">LLMJudge (JudgeConfig)</text>
<text dominant-baseline="central" text-anchor="middle" style="font-size:12px;font-family:sans-serif;font-weight:bold;" xml:space="preserve" transform="translate(503.4314 293.1373)" fill="#333">RanxEvaluator (IR Metrics)</text>
<text dominant-baseline="central" text-anchor="middle" style="font-size:12px;font-family:sans-serif;font-weight:bold;" transform="translate(425 371.5686)" fill="#333">GatingEngine</text>
<text dominant-baseline="central" text-anchor="middle" style="font-size:12px;font-family:sans-serif;font-weight:bold;" transform="translate(425 450)" fill="#333">MLflowTracer</text>
<path d="M-5 -5l476.7 0l0 26l-476.7 0Z" transform="translate(191.64 469)" fill="rgb(0,0,0)" fill-opacity="0" stroke="#ccc" stroke-width="0" class="zr8-cls-162"></path>
<path d="M3.5 0L21.5 0A3.5 3.5 0 0 1 25 3.5L25 10.5A3.5 3.5 0 0 1 21.5 14L3.5 14A3.5 3.5 0 0 1 0 10.5L0 3.5A3.5 3.5 0 0 1 3.5 0" transform="translate(192.64 470)" fill="#5470c6" stroke="#1f2937" stroke-width="2" stroke-linecap="butt" stroke-miterlimit="10" ecmeta_series_index="0" ecmeta_data_index="0" ecmeta_ssr_type="legend" ecmeta_silent="true" class="zr8-cls-162"></path>
<text dominant-baseline="central" text-anchor="start" style="font-size:12px;font-family:sans-serif;" xml:space="preserve" x="30" y="7" transform="translate(192.64 470)" fill="#333">Traffic Mirroring</text>
<path d="M-1 -1l115 0l0 16l-115 0Z" transform="translate(192.64 470)" fill="transparent" ecmeta_series_index="0" ecmeta_data_index="0" ecmeta_ssr_type="legend" class="zr8-cls-163"></path>
<path d="M3.5 0L21.5 0A3.5 3.5 0 0 1 25 3.5L25 10.5A3.5 3.5 0 0 1 21.5 14L3.5 14A3.5 3.5 0 0 1 0 10.5L0 3.5A3.5 3.5 0 0 1 3.5 0" transform="translate(317.64 470)" fill="#91cc75" stroke="#1f2937" stroke-width="2" stroke-linecap="butt" stroke-miterlimit="10" ecmeta_series_index="0" ecmeta_data_index="1" ecmeta_ssr_type="legend" ecmeta_silent="true" class="zr8-cls-162"></path>
<text dominant-baseline="central" text-anchor="start" style="font-size:12px;font-family:sans-serif;" xml:space="preserve" x="30" y="7" transform="translate(317.64 470)" fill="#333">Model Clients</text>
<path d="M-1 -1l103.8 0l0 16l-103.8 0Z" transform="translate(317.64 470)" fill="transparent" ecmeta_series_index="0" ecmeta_data_index="1" ecmeta_ssr_type="legend" class="zr8-cls-163"></path>
<path d="M3.5 0L21.5 0A3.5 3.5 0 0 1 25 3.5L25 10.5A3.5 3.5 0 0 1 21.5 14L3.5 14A3.5 3.5 0 0 1 0 10.5L0 3.5A3.5 3.5 0 0 1 3.5 0" transform="translate(431.48 470)" fill="#fac858" stroke="#1f2937" stroke-width="2" stroke-linecap="butt" stroke-miterlimit="10" ecmeta_series_index="0" ecmeta_data_index="2" ecmeta_ssr_type="legend" ecmeta_silent="true" class="zr8-cls-162"></path>
<text dominant-baseline="central" text-anchor="start" style="font-size:12px;font-family:sans-serif;" xml:space="preserve" x="30" y="7" transform="translate(431.48 470)" fill="#333">Evaluators / Gating</text>
<path d="M-1 -1l133.5 0l0 16l-133.5 0Z" transform="translate(431.48 470)" fill="transparent" ecmeta_series_index="0" ecmeta_data_index="2" ecmeta_ssr_type="legend" class="zr8-cls-163"></path>
<path d="M3.5 0L21.5 0A3.5 3.5 0 0 1 25 3.5L25 10.5A3.5 3.5 0 0 1 21.5 14L3.5 14A3.5 3.5 0 0 1 0 10.5L0 3.5A3.5 3.5 0 0 1 3.5 0" transform="translate(574.96 470)" fill="#ee6666" stroke="#1f2937" stroke-width="2" stroke-linecap="butt" stroke-miterlimit="10" ecmeta_series_index="0" ecmeta_data_index="3" ecmeta_ssr_type="legend" ecmeta_silent="true" class="zr8-cls-162"></path>
<text dominant-baseline="central" text-anchor="start" style="font-size:12px;font-family:sans-serif;" x="30" y="7" transform="translate(574.96 470)" fill="#333">Telemetry</text>
<path d="M-1 -1l84.4 0l0 16l-84.4 0Z" transform="translate(574.96 470)" fill="transparent" ecmeta_series_index="0" ecmeta_data_index="3" ecmeta_ssr_type="legend" class="zr8-cls-163"></path>
<path d="M-240.6 -5l481.1 0l0 50l-481.1 0Z" transform="translate(425 5)" fill="rgb(0,0,0)" fill-opacity="0" stroke="#ccc" stroke-width="0" class="zr8-cls-162"></path>
<text dominant-baseline="central" text-anchor="middle" style="font-size:18px;font-family:sans-serif;font-weight:bold;" xml:space="preserve" y="9" transform="translate(425 5)" fill="#92400e">4. Shadow Testing Engine Architecture</text>
<text dominant-baseline="central" text-anchor="middle" style="font-size:12px;font-family:sans-serif;" xml:space="preserve" y="34" transform="translate(425 5)" fill="#6E7079">Orchestrating Mirroring, Latency Tracking, Gating Decisions, and MLflow Spans Logging</text>
<style ><![CDATA[
.zr8-cls-148:hover {
cursor:pointer;
}
.zr8-cls-149:hover {
cursor:pointer;
fill:rgba(255,173,12,1);
}
.zr8-cls-150 {
animation:zr8-ani-0 1s cubic-bezier(0.65,0,0.35,1) both;
}
.zr8-cls-151:hover {
cursor:pointer;
fill:rgba(92,123,217,1);
}
.zr8-cls-152 {
animation:zr8-ani-1 1s cubic-bezier(0.65,0,0.35,1) both;
}
.zr8-cls-153:hover {
cursor:pointer;
fill:rgba(159,224,128,1);
}
.zr8-cls-154 {
animation:zr8-ani-2 1s cubic-bezier(0.65,0,0.35,1) both;
}
.zr8-cls-155 {
animation:zr8-ani-3 1s cubic-bezier(0.65,0,0.35,1) both;
}
.zr8-cls-156 {
animation:zr8-ani-4 1s cubic-bezier(0.65,0,0.35,1) both;
}
.zr8-cls-157:hover {
cursor:pointer;
fill:rgba(255,220,96,1);
}
.zr8-cls-158 {
animation:zr8-ani-5 1s cubic-bezier(0.65,0,0.35,1) both;
}
.zr8-cls-159 {
animation:zr8-ani-6 1s cubic-bezier(0.65,0,0.35,1) both;
}
.zr8-cls-160 {
animation:zr8-ani-7 1s cubic-bezier(0.65,0,0.35,1) both;
}
.zr8-cls-161:hover {
cursor:pointer;
fill:rgba(255,112,112,1);
}
.zr8-cls-162:hover {
pointer-events:none;
}
.zr8-cls-163:hover {
cursor:pointer;
fill:rgba(0,0,0,0);
}
@keyframes zr8-ani-0 {
0% {
transform:scale(0,0);
opacity:0;
}
100% {
transform:scale(42.5,42.5);
opacity:1;
}
}
@keyframes zr8-ani-1 {
0% {
transform:scale(0,0);
opacity:0;
}
100% {
transform:scale(42.5,42.5);
opacity:1;
}
}
@keyframes zr8-ani-2 {
0% {
transform:scale(0,0);
opacity:0;
}
100% {
transform:scale(42.5,42.5);
opacity:1;
}
}
@keyframes zr8-ani-3 {
0% {
transform:scale(0,0);
opacity:0;
}
100% {
transform:scale(42.5,42.5);
opacity:1;
}
}
@keyframes zr8-ani-4 {
0% {
transform:scale(0,0);
opacity:0;
}
100% {
transform:scale(42.5,42.5);
opacity:1;
}
}
@keyframes zr8-ani-5 {
0% {
transform:scale(0,0);
opacity:0;
}
100% {
transform:scale(42.5,42.5);
opacity:1;
}
}
@keyframes zr8-ani-6 {
0% {
transform:scale(0,0);
opacity:0;
}
100% {
transform:scale(42.5,42.5);
opacity:1;
}
}
@keyframes zr8-ani-7 {
0% {
transform:scale(0,0);
opacity:0;
}
100% {
transform:scale(42.5,42.5);
opacity:1;
}
}
]]>

</style>
</svg>